<mxfile host="app.diagrams.net" modified="2023-11-08T19:48:26.937Z" agent="Mozilla/5.0 (Windows NT 10.0; Win64; x64) AppleWebKit/537.36 (KHTML, like Gecko) Chrome/118.0.0.0 Safari/537.36" etag="uwqesaaHEW1BZ4W-S_ab" version="22.0.8" type="github">
  <diagram id="JcDE__O7O9NWPflf5xcE" name="Page-2">
    <mxGraphModel dx="-160" dy="3512" grid="1" gridSize="10" guides="1" tooltips="1" connect="1" arrows="1" fold="1" page="1" pageScale="1" pageWidth="850" pageHeight="1100" math="0" shadow="0">
      <root>
        <mxCell id="0" />
        <mxCell id="1" parent="0" />
        <mxCell id="n0j5kEs9DRSpcFmQZBuR-1" value="&lt;p style=&quot;margin:0px;margin-top:4px;text-align:center;&quot;&gt;&lt;b&gt;CashRegister&lt;/b&gt;&lt;/p&gt;&lt;hr size=&quot;1&quot;/&gt;&lt;p style=&quot;margin:0 0 0 4px;line-height:1.6;&quot;&gt;+ CashRegister(double, double, Employee): &lt;/p&gt;&lt;hr size=&quot;1&quot;/&gt;&lt;p style=&quot;margin:0 0 0 4px;line-height:1.6;&quot;&gt;- cashRegisterNumber: double&lt;br/&gt;- heldCash: double&lt;br/&gt;- registerOpenedDate: ZonedDateTime&lt;br/&gt;- salesAssociate: Employee&lt;br/&gt;- transactionLog: ArrayList&amp;lt;Transaction&amp;gt;&lt;/p&gt;&lt;hr size=&quot;1&quot;/&gt;&lt;p style=&quot;margin:0 0 0 4px;line-height:1.6;&quot;&gt;+ getCashRegisterNumber(): double&lt;br/&gt;+ getDate(): ZonedDateTime&lt;br/&gt;+ getHeldCash(): double&lt;br/&gt;+ getSalesAssociate(): Employee&lt;br/&gt;+ getTransactionLog(): ArrayList&amp;lt;Transaction&amp;gt;&lt;br/&gt;+ newTransaction(Transaction): void&lt;br/&gt;+ setCashRegisterNumber(double): void&lt;br/&gt;+ setHeldCash(double): void&lt;br/&gt;+ setSalesAssociate(Employee): void&lt;/p&gt;" style="verticalAlign=top;align=left;overflow=fill;fontSize=14;fontFamily=Helvetica;html=1;rounded=0;shadow=0;comic=0;labelBackgroundColor=none;strokeWidth=1;" vertex="1" parent="1">
          <mxGeometry x="5147" y="-1885" width="325" height="403" as="geometry" />
        </mxCell>
        <mxCell id="n0j5kEs9DRSpcFmQZBuR-2" value="&lt;p style=&quot;margin:0px;margin-top:4px;text-align:center;&quot;&gt;&lt;b&gt;Customer&lt;/b&gt;&lt;/p&gt;&lt;hr size=&quot;1&quot;/&gt;&lt;p style=&quot;margin:0 0 0 4px;line-height:1.6;&quot;&gt;+ Customer(String, String): &lt;/p&gt;&lt;hr size=&quot;1&quot;/&gt;&lt;p style=&quot;margin:0 0 0 4px;line-height:1.6;&quot;&gt;- Name: String&lt;br/&gt;- phoneNumber: String&lt;/p&gt;&lt;hr size=&quot;1&quot;/&gt;&lt;p style=&quot;margin:0 0 0 4px;line-height:1.6;&quot;&gt;+ changeName(String): void&lt;br/&gt;+ changePhoneNumber(String): void&lt;br/&gt;+ getName(): String&lt;br/&gt;+ getPhoneNumber(): String&lt;/p&gt;" style="verticalAlign=top;align=left;overflow=fill;fontSize=14;fontFamily=Helvetica;html=1;rounded=0;shadow=0;comic=0;labelBackgroundColor=none;strokeWidth=1;" vertex="1" parent="1">
          <mxGeometry x="3929" y="-1789" width="261" height="211" as="geometry" />
        </mxCell>
        <mxCell id="n0j5kEs9DRSpcFmQZBuR-3" value="&lt;p style=&quot;margin:0px;margin-top:4px;text-align:center;&quot;&gt;&lt;b&gt;Discount&lt;/b&gt;&lt;/p&gt;&lt;hr size=&quot;1&quot;/&gt;&lt;p style=&quot;margin:0 0 0 4px;line-height:1.6;&quot;&gt;+ Discount(double): &lt;/p&gt;&lt;hr size=&quot;1&quot;/&gt;&lt;p style=&quot;margin:0 0 0 4px;line-height:1.6;&quot;&gt;- discountPercent: double&lt;/p&gt;&lt;hr size=&quot;1&quot;/&gt;&lt;p style=&quot;margin:0 0 0 4px;line-height:1.6;&quot;&gt;+ changeDiscountPercent(double): void&lt;br/&gt;+ getDiscountPercent(): double&lt;/p&gt;" style="verticalAlign=top;align=left;overflow=fill;fontSize=14;fontFamily=Helvetica;html=1;rounded=0;shadow=0;comic=0;labelBackgroundColor=none;strokeWidth=1;" vertex="1" parent="1">
          <mxGeometry x="4157" y="-2076" width="281" height="150" as="geometry" />
        </mxCell>
        <mxCell id="n0j5kEs9DRSpcFmQZBuR-4" value="&lt;p style=&quot;margin:0px;margin-top:4px;text-align:center;&quot;&gt;&lt;b&gt;Employee&lt;/b&gt;&lt;/p&gt;&lt;hr size=&quot;1&quot;/&gt;&lt;p style=&quot;margin:0 0 0 4px;line-height:1.6;&quot;&gt;+ Employee(): &lt;/p&gt;" style="verticalAlign=top;align=left;overflow=fill;fontSize=14;fontFamily=Helvetica;html=1;rounded=0;shadow=0;comic=0;labelBackgroundColor=none;strokeWidth=1;" vertex="1" parent="1">
          <mxGeometry x="5246" y="-2038" width="127" height="68" as="geometry" />
        </mxCell>
        <mxCell id="n0j5kEs9DRSpcFmQZBuR-5" value="&lt;p style=&quot;margin:0px;margin-top:4px;text-align:center;&quot;&gt;&lt;b&gt;Inventory&lt;/b&gt;&lt;/p&gt;&lt;hr size=&quot;1&quot;/&gt;&lt;p style=&quot;margin:0 0 0 4px;line-height:1.6;&quot;&gt;+ Inventory(): &lt;/p&gt;" style="verticalAlign=top;align=left;overflow=fill;fontSize=14;fontFamily=Helvetica;html=1;rounded=0;shadow=0;comic=0;labelBackgroundColor=none;strokeWidth=1;" vertex="1" parent="1">
          <mxGeometry x="4261" y="-986" width="125" height="68" as="geometry" />
        </mxCell>
        <mxCell id="n0j5kEs9DRSpcFmQZBuR-6" value="&lt;p style=&quot;margin:0px;margin-top:4px;text-align:center;&quot;&gt;&lt;b&gt;LoyaltyAccount&lt;/b&gt;&lt;/p&gt;&lt;hr size=&quot;1&quot;/&gt;&lt;p style=&quot;margin:0 0 0 4px;line-height:1.6;&quot;&gt;+ LoyaltyAccount(String, double, double): &lt;br/&gt;+ LoyaltyAccount(String): &lt;/p&gt;&lt;hr size=&quot;1&quot;/&gt;&lt;p style=&quot;margin:0 0 0 4px;line-height:1.6;&quot;&gt;- accountNumber: BigInteger&lt;br/&gt;- pointsBalance: double&lt;br/&gt;- rewardsDiscount: Discount&lt;/p&gt;&lt;hr size=&quot;1&quot;/&gt;&lt;p style=&quot;margin:0 0 0 4px;line-height:1.6;&quot;&gt;+ addPoints(double): void&lt;br/&gt;+ changeDiscountPercent(double): void&lt;br/&gt;+ getAccountNumber(): BigInteger&lt;br/&gt;+ getDiscountPercent(): double&lt;br/&gt;+ getPointsBalance(): double&lt;br/&gt;+ usePoints(double): void&lt;/p&gt;" style="verticalAlign=top;align=left;overflow=fill;fontSize=14;fontFamily=Helvetica;html=1;rounded=0;shadow=0;comic=0;labelBackgroundColor=none;strokeWidth=1;" vertex="1" parent="1">
          <mxGeometry x="3612" y="-1837" width="297" height="307" as="geometry" />
        </mxCell>
        <mxCell id="n0j5kEs9DRSpcFmQZBuR-7" value="&lt;p style=&quot;margin:0px;margin-top:4px;text-align:center;&quot;&gt;&lt;b&gt;Offer&lt;/b&gt;&lt;/p&gt;&lt;hr size=&quot;1&quot;/&gt;&lt;p style=&quot;margin:0 0 0 4px;line-height:1.6;&quot;&gt;+ Offer(String, double, String): &lt;/p&gt;&lt;hr size=&quot;1&quot;/&gt;&lt;p style=&quot;margin:0 0 0 4px;line-height:1.6;&quot;&gt;- discountDescription: String&lt;br/&gt;- discountName: String&lt;/p&gt;&lt;hr size=&quot;1&quot;/&gt;&lt;p style=&quot;margin:0 0 0 4px;line-height:1.6;&quot;&gt;+ changeDiscountDescription(String): void&lt;br/&gt;+ changeDiscountName(String): void&lt;br/&gt;+ changeDiscountPercent(double): void&lt;br/&gt;+ getDiscountDescription(): String&lt;br/&gt;+ getDiscountName(): String&lt;br/&gt;+ getDiscountPercent(): double&lt;/p&gt;" style="verticalAlign=top;align=left;overflow=fill;fontSize=14;fontFamily=Helvetica;html=1;rounded=0;shadow=0;comic=0;labelBackgroundColor=none;strokeWidth=1;" vertex="1" parent="1">
          <mxGeometry x="4830" y="-1813" width="297" height="259" as="geometry" />
        </mxCell>
        <mxCell id="n0j5kEs9DRSpcFmQZBuR-8" value="&lt;p style=&quot;margin:0px;margin-top:4px;text-align:center;&quot;&gt;&lt;b&gt;Payment&lt;/b&gt;&lt;/p&gt;&lt;hr size=&quot;1&quot;/&gt;&lt;p style=&quot;margin:0 0 0 4px;line-height:1.6;&quot;&gt;+ Payment(String, double, boolean): &lt;/p&gt;&lt;hr size=&quot;1&quot;/&gt;&lt;p style=&quot;margin:0 0 0 4px;line-height:1.6;&quot;&gt;- amountPaid: double&lt;br/&gt;- isPaid: boolean&lt;br/&gt;- paymentType: String&lt;/p&gt;&lt;hr size=&quot;1&quot;/&gt;&lt;p style=&quot;margin:0 0 0 4px;line-height:1.6;&quot;&gt;+ changeAmountPaid(double): void&lt;br/&gt;+ changeIsPaid(boolean): void&lt;br/&gt;+ changePaymentType(String): void&lt;br/&gt;+ getAmountPaid(): double&lt;br/&gt;+ getIsPaid(): boolean&lt;br/&gt;+ getPaymentType(): String&lt;/p&gt;" style="verticalAlign=top;align=left;overflow=fill;fontSize=14;fontFamily=Helvetica;html=1;rounded=0;shadow=0;comic=0;labelBackgroundColor=none;strokeWidth=1;" vertex="1" parent="1">
          <mxGeometry x="4547" y="-1825" width="262" height="283" as="geometry" />
        </mxCell>
        <mxCell id="n0j5kEs9DRSpcFmQZBuR-9" value="&lt;p style=&quot;margin:0px;margin-top:4px;text-align:center;&quot;&gt;&lt;b&gt;Product&lt;/b&gt;&lt;/p&gt;&lt;hr size=&quot;1&quot;/&gt;&lt;p style=&quot;margin:0 0 0 4px;line-height:1.6;&quot;&gt;+ Product(double, double, String, String): &lt;/p&gt;&lt;hr size=&quot;1&quot;/&gt;&lt;p style=&quot;margin:0 0 0 4px;line-height:1.6;&quot;&gt;- description: String&lt;br/&gt;- itemNumber: double&lt;br/&gt;- name: String&lt;br/&gt;- price: double&lt;/p&gt;&lt;hr size=&quot;1&quot;/&gt;&lt;p style=&quot;margin:0 0 0 4px;line-height:1.6;&quot;&gt;+ getDescription(): String&lt;br/&gt;+ getItemNumber(): double&lt;br/&gt;+ getName(): String&lt;br/&gt;+ getPrice(): double&lt;br/&gt;+ setDescription(String): void&lt;br/&gt;+ setItemNumber(double): void&lt;br/&gt;+ setName(String): void&lt;br/&gt;+ setPrice(double): void&lt;/p&gt;" style="verticalAlign=top;align=left;overflow=fill;fontSize=14;fontFamily=Helvetica;html=1;rounded=0;shadow=0;comic=0;labelBackgroundColor=none;strokeWidth=1;" vertex="1" parent="1">
          <mxGeometry x="4210" y="-1861" width="295" height="355" as="geometry" />
        </mxCell>
        <mxCell id="n0j5kEs9DRSpcFmQZBuR-10" value="&lt;p style=&quot;margin:0px;margin-top:4px;text-align:center;&quot;&gt;&lt;b&gt;Product&lt;/b&gt;&lt;/p&gt;&lt;hr size=&quot;1&quot;/&gt;&lt;p style=&quot;margin:0 0 0 4px;line-height:1.6;&quot;&gt;+ Product(String, double, String, String): &lt;/p&gt;&lt;hr size=&quot;1&quot;/&gt;&lt;p style=&quot;margin:0 0 0 4px;line-height:1.6;&quot;&gt;- description: String&lt;br/&gt;- id: String&lt;br/&gt;- name: String&lt;br/&gt;- price: double&lt;/p&gt;&lt;hr size=&quot;1&quot;/&gt;&lt;p style=&quot;margin:0 0 0 4px;line-height:1.6;&quot;&gt;+ getDescription(): String&lt;br/&gt;+ getId(): String&lt;br/&gt;+ getName(): String&lt;br/&gt;+ getPrice(): double&lt;br/&gt;+ setDescription(String): void&lt;br/&gt;+ setId(String): void&lt;br/&gt;+ setName(String): void&lt;br/&gt;+ setPrice(double): void&lt;br/&gt;+ toString(): String&lt;/p&gt;" style="verticalAlign=top;align=left;overflow=fill;fontSize=14;fontFamily=Helvetica;html=1;rounded=0;shadow=0;comic=0;labelBackgroundColor=none;strokeWidth=1;" vertex="1" parent="1">
          <mxGeometry x="3220" y="-1837" width="289" height="379" as="geometry" />
        </mxCell>
        <mxCell id="n0j5kEs9DRSpcFmQZBuR-11" value="&lt;p style=&quot;margin:0px;margin-top:4px;text-align:center;&quot;&gt;&lt;b&gt;ProductList&lt;/b&gt;&lt;/p&gt;&lt;hr size=&quot;1&quot;/&gt;&lt;p style=&quot;margin:0 0 0 4px;line-height:1.6;&quot;&gt;+ ProductList(): &lt;/p&gt;&lt;hr size=&quot;1&quot;/&gt;&lt;p style=&quot;margin:0 0 0 4px;line-height:1.6;&quot;&gt;+ getGroceryList(): ArrayList&amp;lt;Product&amp;gt;&lt;/p&gt;" style="verticalAlign=top;align=left;overflow=fill;fontSize=14;fontFamily=Helvetica;html=1;rounded=0;shadow=0;comic=0;labelBackgroundColor=none;strokeWidth=1;" vertex="1" parent="1">
          <mxGeometry x="3226" y="-1408" width="277" height="96" as="geometry" />
        </mxCell>
        <mxCell id="n0j5kEs9DRSpcFmQZBuR-12" value="&lt;p style=&quot;margin:0px;margin-top:4px;text-align:center;&quot;&gt;&lt;b&gt;Receipt&lt;/b&gt;&lt;/p&gt;&lt;hr size=&quot;1&quot;/&gt;&lt;p style=&quot;margin:0 0 0 4px;line-height:1.6;&quot;&gt;+ Receipt(Customer, Payment, CashRegister, ArrayList&amp;lt;Transaction&amp;gt;): &lt;br/&gt;+ Receipt(Customer, Payment, CashRegister, ArrayList&amp;lt;Transaction&amp;gt;, Discount): &lt;/p&gt;&lt;hr size=&quot;1&quot;/&gt;&lt;p style=&quot;margin:0 0 0 4px;line-height:1.6;&quot;&gt;- cashRegister: CashRegister&lt;br/&gt;- changeGiven: double&lt;br/&gt;- customer: Customer&lt;br/&gt;- discount: Discount&lt;br/&gt;- payment: Payment&lt;br/&gt;- tax: double&lt;br/&gt;- transactions: ArrayList&amp;lt;Transaction&amp;gt;&lt;/p&gt;&lt;hr size=&quot;1&quot;/&gt;&lt;p style=&quot;margin:0 0 0 4px;line-height:1.6;&quot;&gt;+ getChangeGiven(): double&lt;br/&gt;+ getSubtotal(): double&lt;br/&gt;+ getTax(): double&lt;br/&gt;+ getTotal(): double&lt;br/&gt;+ setTax(double): void&lt;/p&gt;" style="verticalAlign=top;align=left;overflow=fill;fontSize=14;fontFamily=Helvetica;html=1;rounded=0;shadow=0;comic=0;labelBackgroundColor=none;strokeWidth=1;" vertex="1" parent="1">
          <mxGeometry x="4536" y="-1410" width="447" height="379" as="geometry" />
        </mxCell>
        <mxCell id="n0j5kEs9DRSpcFmQZBuR-13" value="&lt;p style=&quot;margin:0px;margin-top:4px;text-align:center;&quot;&gt;&lt;b&gt;RewardsCustomer&lt;/b&gt;&lt;/p&gt;&lt;hr size=&quot;1&quot;/&gt;&lt;p style=&quot;margin:0 0 0 4px;line-height:1.6;&quot;&gt;+ RewardsCustomer(String, String, String): &lt;/p&gt;&lt;hr size=&quot;1&quot;/&gt;&lt;p style=&quot;margin:0 0 0 4px;line-height:1.6;&quot;&gt;- customerEmail: String&lt;br/&gt;- loyaltyAccount: LoyaltyAccount&lt;br/&gt;- offers: ArrayList&amp;lt;Offer&amp;gt;&lt;/p&gt;&lt;hr size=&quot;1&quot;/&gt;&lt;p style=&quot;margin:0 0 0 4px;line-height:1.6;&quot;&gt;+ changeCustomerEmail(String): void&lt;br/&gt;+ getCustomerEmail(): String&lt;br/&gt;+ upgradeCustomerToRewards(Customer, String, double): RewardsCustomer&lt;/p&gt;" style="verticalAlign=top;align=left;overflow=fill;fontSize=14;fontFamily=Helvetica;html=1;rounded=0;shadow=0;comic=0;labelBackgroundColor=none;strokeWidth=1;" vertex="1" parent="1">
          <mxGeometry x="3560" y="-1326" width="517" height="211" as="geometry" />
        </mxCell>
        <mxCell id="n0j5kEs9DRSpcFmQZBuR-14" value="&lt;p style=&quot;margin:0px;margin-top:4px;text-align:center;&quot;&gt;&lt;b&gt;Transaction&lt;/b&gt;&lt;/p&gt;&lt;hr size=&quot;1&quot;/&gt;&lt;p style=&quot;margin:0 0 0 4px;line-height:1.6;&quot;&gt;+ Transaction(): &lt;br/&gt;+ Transaction(Date, double, Product, Customer): &lt;/p&gt;&lt;hr size=&quot;1&quot;/&gt;&lt;p style=&quot;margin:0 0 0 4px;line-height:1.6;&quot;&gt;- customer: Customer&lt;br/&gt;- date: Date&lt;br/&gt;- product: Product&lt;br/&gt;- transactionNumber: double&lt;/p&gt;&lt;hr size=&quot;1&quot;/&gt;&lt;p style=&quot;margin:0 0 0 4px;line-height:1.6;&quot;&gt;+ getCustomer(): Customer&lt;br/&gt;+ getDate(): Date&lt;br/&gt;+ getProduct(): Product&lt;br/&gt;+ getTransactionNumber(): double&lt;br/&gt;+ setCustomer(Customer): void&lt;br/&gt;+ setDate(Date): void&lt;br/&gt;+ setProduct(Product): void&lt;br/&gt;+ setTransactionNumber(double): void&lt;/p&gt;" style="verticalAlign=top;align=left;overflow=fill;fontSize=14;fontFamily=Helvetica;html=1;rounded=0;shadow=0;comic=0;labelBackgroundColor=none;strokeWidth=1;" vertex="1" parent="1">
          <mxGeometry x="4134" y="-1410" width="341" height="379" as="geometry" />
        </mxCell>
        <mxCell id="n0j5kEs9DRSpcFmQZBuR-15" value="&lt;p style=&quot;margin:0px;margin-top:4px;text-align:center;&quot;&gt;&lt;b&gt;Utilities&lt;/b&gt;&lt;/p&gt;&lt;hr size=&quot;1&quot;/&gt;&lt;p style=&quot;margin:0 0 0 4px;line-height:1.6;&quot;&gt;+ Utilities(): &lt;/p&gt;&lt;hr size=&quot;1&quot;/&gt;&lt;p style=&quot;margin:0 0 0 4px;line-height:1.6;&quot;&gt;+ generateAccountNumber(String): BigInteger&lt;/p&gt;" style="verticalAlign=top;align=left;overflow=fill;fontSize=14;fontFamily=Helvetica;html=1;rounded=0;shadow=0;comic=0;labelBackgroundColor=none;strokeWidth=1;" vertex="1" parent="1">
          <mxGeometry x="3894" y="-986" width="322" height="96" as="geometry" />
        </mxCell>
        <mxCell id="n0j5kEs9DRSpcFmQZBuR-16" value="" style="html=1;rounded=1;edgeStyle=orthogonalEdgeStyle;dashed=0;startArrow=diamondThinstartSize=12;endArrow=openThin;endSize=12;strokeColor=#595959;exitX=0.500;exitY=0.000;exitDx=0;exitDy=0;entryX=0.500;entryY=1.001;entryDx=0;entryDy=0;" edge="1" parent="1" source="n0j5kEs9DRSpcFmQZBuR-1" target="n0j5kEs9DRSpcFmQZBuR-4">
          <mxGeometry width="50" height="50" relative="1" as="geometry">
            <Array as="points" />
          </mxGeometry>
        </mxCell>
        <mxCell id="n0j5kEs9DRSpcFmQZBuR-17" value="1" style="edgeLabel;resizable=0;html=1;align=left;verticalAlign=top;strokeColor=default;" vertex="1" connectable="0" parent="n0j5kEs9DRSpcFmQZBuR-16">
          <mxGeometry x="5299" y="-1910" as="geometry" />
        </mxCell>
        <mxCell id="n0j5kEs9DRSpcFmQZBuR-18" value="1" style="edgeLabel;resizable=0;html=1;align=left;verticalAlign=top;strokeColor=default;" vertex="1" connectable="0" parent="n0j5kEs9DRSpcFmQZBuR-16">
          <mxGeometry x="5299" y="-1970" as="geometry" />
        </mxCell>
        <mxCell id="n0j5kEs9DRSpcFmQZBuR-19" value="salesAssociate" style="edgeLabel;resizable=0;html=1;align=left;verticalAlign=top;strokeColor=default;" vertex="1" connectable="0" parent="n0j5kEs9DRSpcFmQZBuR-16">
          <mxGeometry x="5310" y="-1962" as="geometry" />
        </mxCell>
        <mxCell id="n0j5kEs9DRSpcFmQZBuR-20" value="" style="html=1;rounded=1;edgeStyle=orthogonalEdgeStyle;dashed=0;startArrow=diamondThinstartSize=12;endArrow=openThin;endSize=12;strokeColor=#595959;exitX=0.500;exitY=0.000;exitDx=0;exitDy=0;entryX=0.500;entryY=1.000;entryDx=0;entryDy=0;" edge="1" parent="1" source="n0j5kEs9DRSpcFmQZBuR-6" target="n0j5kEs9DRSpcFmQZBuR-3">
          <mxGeometry width="50" height="50" relative="1" as="geometry">
            <Array as="points">
              <mxPoint x="3760" y="-1889" />
              <mxPoint x="4298" y="-1889" />
            </Array>
          </mxGeometry>
        </mxCell>
        <mxCell id="n0j5kEs9DRSpcFmQZBuR-21" value="1" style="edgeLabel;resizable=0;html=1;align=left;verticalAlign=top;strokeColor=default;" vertex="1" connectable="0" parent="n0j5kEs9DRSpcFmQZBuR-20">
          <mxGeometry x="3749" y="-1862" as="geometry" />
        </mxCell>
        <mxCell id="n0j5kEs9DRSpcFmQZBuR-22" value="1" style="edgeLabel;resizable=0;html=1;align=left;verticalAlign=top;strokeColor=default;" vertex="1" connectable="0" parent="n0j5kEs9DRSpcFmQZBuR-20">
          <mxGeometry x="4203" y="-1909" as="geometry" />
        </mxCell>
        <mxCell id="n0j5kEs9DRSpcFmQZBuR-23" value="rewardsDiscount" style="edgeLabel;resizable=0;html=1;align=left;verticalAlign=top;strokeColor=default;" vertex="1" connectable="0" parent="n0j5kEs9DRSpcFmQZBuR-20">
          <mxGeometry x="4114" y="-1889" as="geometry" />
        </mxCell>
        <mxCell id="n0j5kEs9DRSpcFmQZBuR-24" value="" style="html=1;rounded=1;edgeStyle=orthogonalEdgeStyle;dashed=1;startArrow=none;endArrow=openThin;endSize=12;strokeColor=#595959;exitX=0.449;exitY=0.000;exitDx=0;exitDy=0;entryX=0.000;entryY=0.500;entryDx=0;entryDy=0;" edge="1" parent="1" source="n0j5kEs9DRSpcFmQZBuR-6" target="n0j5kEs9DRSpcFmQZBuR-3">
          <mxGeometry width="50" height="50" relative="1" as="geometry">
            <Array as="points">
              <mxPoint x="3745" y="-2006" />
            </Array>
          </mxGeometry>
        </mxCell>
        <mxCell id="n0j5kEs9DRSpcFmQZBuR-25" value="«create»" style="edgeLabel;resizable=0;html=1;align=left;verticalAlign=top;strokeColor=default;" vertex="1" connectable="0" parent="n0j5kEs9DRSpcFmQZBuR-24">
          <mxGeometry x="3910" y="-2026" as="geometry" />
        </mxCell>
        <mxCell id="n0j5kEs9DRSpcFmQZBuR-26" value="" style="html=1;rounded=1;edgeStyle=orthogonalEdgeStyle;dashed=0;startArrow=none;endArrow=block;endSize=12;strokeColor=#000082;exitX=0.500;exitY=0.000;exitDx=0;exitDy=0;entryX=0.833;entryY=1.000;entryDx=0;entryDy=0;" edge="1" parent="1" source="n0j5kEs9DRSpcFmQZBuR-7" target="n0j5kEs9DRSpcFmQZBuR-3">
          <mxGeometry width="50" height="50" relative="1" as="geometry">
            <Array as="points">
              <mxPoint x="4979" y="-1916" />
              <mxPoint x="4391" y="-1916" />
            </Array>
          </mxGeometry>
        </mxCell>
        <mxCell id="n0j5kEs9DRSpcFmQZBuR-27" value="" style="html=1;rounded=1;edgeStyle=orthogonalEdgeStyle;dashed=1;startArrow=none;endArrow=openThin;endSize=12;strokeColor=#595959;exitX=0.500;exitY=0.001;exitDx=0;exitDy=0;entryX=0.500;entryY=1.000;entryDx=0;entryDy=0;" edge="1" parent="1" source="n0j5kEs9DRSpcFmQZBuR-11" target="n0j5kEs9DRSpcFmQZBuR-10">
          <mxGeometry width="50" height="50" relative="1" as="geometry">
            <Array as="points" />
          </mxGeometry>
        </mxCell>
        <mxCell id="n0j5kEs9DRSpcFmQZBuR-28" value="«create»" style="edgeLabel;resizable=0;html=1;align=left;verticalAlign=top;strokeColor=default;" vertex="1" connectable="0" parent="n0j5kEs9DRSpcFmQZBuR-27">
          <mxGeometry x="3313" y="-1443" as="geometry" />
        </mxCell>
        <mxCell id="n0j5kEs9DRSpcFmQZBuR-29" value="" style="html=1;rounded=1;edgeStyle=orthogonalEdgeStyle;dashed=0;startArrow=diamondThinstartSize=12;endArrow=openThin;endSize=12;strokeColor=#595959;exitX=1.000;exitY=0.460;exitDx=0;exitDy=0;entryX=0.500;entryY=1.000;entryDx=0;entryDy=0;" edge="1" parent="1" source="n0j5kEs9DRSpcFmQZBuR-12" target="n0j5kEs9DRSpcFmQZBuR-1">
          <mxGeometry width="50" height="50" relative="1" as="geometry">
            <Array as="points">
              <mxPoint x="5310" y="-1235" />
            </Array>
          </mxGeometry>
        </mxCell>
        <mxCell id="n0j5kEs9DRSpcFmQZBuR-30" value="1" style="edgeLabel;resizable=0;html=1;align=left;verticalAlign=top;strokeColor=default;" vertex="1" connectable="0" parent="n0j5kEs9DRSpcFmQZBuR-29">
          <mxGeometry x="5294" y="-1292" as="geometry" />
        </mxCell>
        <mxCell id="n0j5kEs9DRSpcFmQZBuR-31" value="1" style="edgeLabel;resizable=0;html=1;align=left;verticalAlign=top;strokeColor=default;" vertex="1" connectable="0" parent="n0j5kEs9DRSpcFmQZBuR-29">
          <mxGeometry x="5294" y="-1408" as="geometry" />
        </mxCell>
        <mxCell id="n0j5kEs9DRSpcFmQZBuR-32" value="cashRegister" style="edgeLabel;resizable=0;html=1;align=left;verticalAlign=top;strokeColor=default;" vertex="1" connectable="0" parent="n0j5kEs9DRSpcFmQZBuR-29">
          <mxGeometry x="5310" y="-1477" as="geometry" />
        </mxCell>
        <mxCell id="n0j5kEs9DRSpcFmQZBuR-33" value="" style="html=1;rounded=1;edgeStyle=orthogonalEdgeStyle;dashed=0;startArrow=diamondThinstartSize=12;endArrow=openThin;endSize=12;strokeColor=#595959;exitX=0.500;exitY=0.000;exitDx=0;exitDy=0;entryX=0.500;entryY=1.000;entryDx=0;entryDy=0;" edge="1" parent="1" source="n0j5kEs9DRSpcFmQZBuR-12" target="n0j5kEs9DRSpcFmQZBuR-2">
          <mxGeometry width="50" height="50" relative="1" as="geometry">
            <Array as="points">
              <mxPoint x="4759" y="-1469" />
              <mxPoint x="4059" y="-1469" />
            </Array>
          </mxGeometry>
        </mxCell>
        <mxCell id="n0j5kEs9DRSpcFmQZBuR-34" value="1" style="edgeLabel;resizable=0;html=1;align=left;verticalAlign=top;strokeColor=default;" vertex="1" connectable="0" parent="n0j5kEs9DRSpcFmQZBuR-33">
          <mxGeometry x="4520" y="-1489" as="geometry" />
        </mxCell>
        <mxCell id="n0j5kEs9DRSpcFmQZBuR-35" value="1" style="edgeLabel;resizable=0;html=1;align=left;verticalAlign=top;strokeColor=default;" vertex="1" connectable="0" parent="n0j5kEs9DRSpcFmQZBuR-33">
          <mxGeometry x="4048" y="-1533" as="geometry" />
        </mxCell>
        <mxCell id="n0j5kEs9DRSpcFmQZBuR-36" value="customer" style="edgeLabel;resizable=0;html=1;align=left;verticalAlign=top;strokeColor=default;" vertex="1" connectable="0" parent="n0j5kEs9DRSpcFmQZBuR-33">
          <mxGeometry x="4059" y="-1573" as="geometry" />
        </mxCell>
        <mxCell id="n0j5kEs9DRSpcFmQZBuR-37" value="" style="html=1;rounded=1;edgeStyle=orthogonalEdgeStyle;dashed=0;startArrow=diamondThinstartSize=12;endArrow=openThin;endSize=12;strokeColor=#595959;exitX=1.000;exitY=0.500;exitDx=0;exitDy=0;entryX=0.500;entryY=1.000;entryDx=0;entryDy=0;" edge="1" parent="1" source="n0j5kEs9DRSpcFmQZBuR-12" target="n0j5kEs9DRSpcFmQZBuR-3">
          <mxGeometry width="50" height="50" relative="1" as="geometry">
            <Array as="points">
              <mxPoint x="5490" y="-1220" />
              <mxPoint x="5490" y="-2093" />
              <mxPoint x="4994" y="-2093" />
              <mxPoint x="4994" y="-1889" />
              <mxPoint x="4298" y="-1889" />
            </Array>
          </mxGeometry>
        </mxCell>
        <mxCell id="n0j5kEs9DRSpcFmQZBuR-38" value="1" style="edgeLabel;resizable=0;html=1;align=left;verticalAlign=top;strokeColor=default;" vertex="1" connectable="0" parent="n0j5kEs9DRSpcFmQZBuR-37">
          <mxGeometry x="5474" y="-1667" as="geometry" />
        </mxCell>
        <mxCell id="n0j5kEs9DRSpcFmQZBuR-39" value="1" style="edgeLabel;resizable=0;html=1;align=left;verticalAlign=top;strokeColor=default;" vertex="1" connectable="0" parent="n0j5kEs9DRSpcFmQZBuR-37">
          <mxGeometry x="4282" y="-1915" as="geometry" />
        </mxCell>
        <mxCell id="n0j5kEs9DRSpcFmQZBuR-40" value="discount" style="edgeLabel;resizable=0;html=1;align=left;verticalAlign=top;strokeColor=default;" vertex="1" connectable="0" parent="n0j5kEs9DRSpcFmQZBuR-37">
          <mxGeometry x="4948" y="-1923" as="geometry" />
        </mxCell>
        <mxCell id="n0j5kEs9DRSpcFmQZBuR-41" value="" style="html=1;rounded=1;edgeStyle=orthogonalEdgeStyle;dashed=0;startArrow=diamondThinstartSize=12;endArrow=openThin;endSize=12;strokeColor=#595959;exitX=0.567;exitY=0.000;exitDx=0;exitDy=0;entryX=0.923;entryY=1.000;entryDx=0;entryDy=0;" edge="1" parent="1" source="n0j5kEs9DRSpcFmQZBuR-12" target="n0j5kEs9DRSpcFmQZBuR-8">
          <mxGeometry width="50" height="50" relative="1" as="geometry">
            <Array as="points" />
          </mxGeometry>
        </mxCell>
        <mxCell id="n0j5kEs9DRSpcFmQZBuR-42" value="1" style="edgeLabel;resizable=0;html=1;align=left;verticalAlign=top;strokeColor=default;" vertex="1" connectable="0" parent="n0j5kEs9DRSpcFmQZBuR-41">
          <mxGeometry x="4794" y="-1520" as="geometry" />
        </mxCell>
        <mxCell id="n0j5kEs9DRSpcFmQZBuR-43" value="1" style="edgeLabel;resizable=0;html=1;align=left;verticalAlign=top;strokeColor=default;" vertex="1" connectable="0" parent="n0j5kEs9DRSpcFmQZBuR-41">
          <mxGeometry x="4778" y="-1529" as="geometry" />
        </mxCell>
        <mxCell id="n0j5kEs9DRSpcFmQZBuR-44" value="payment" style="edgeLabel;resizable=0;html=1;align=left;verticalAlign=top;strokeColor=default;" vertex="1" connectable="0" parent="n0j5kEs9DRSpcFmQZBuR-41">
          <mxGeometry x="4789" y="-1529" as="geometry" />
        </mxCell>
        <mxCell id="n0j5kEs9DRSpcFmQZBuR-45" value="" style="html=1;rounded=1;edgeStyle=orthogonalEdgeStyle;dashed=0;startArrow=none;endArrow=block;endSize=12;strokeColor=#000082;exitX=0.833;exitY=0.000;exitDx=0;exitDy=0;entryX=0.250;entryY=1.000;entryDx=0;entryDy=0;" edge="1" parent="1" source="n0j5kEs9DRSpcFmQZBuR-13" target="n0j5kEs9DRSpcFmQZBuR-2">
          <mxGeometry width="50" height="50" relative="1" as="geometry">
            <Array as="points">
              <mxPoint x="3991" y="-1431" />
              <mxPoint x="3994" y="-1431" />
            </Array>
          </mxGeometry>
        </mxCell>
        <mxCell id="n0j5kEs9DRSpcFmQZBuR-46" value="" style="html=1;rounded=1;edgeStyle=orthogonalEdgeStyle;dashed=1;startArrow=none;endArrow=openThin;endSize=12;strokeColor=#595959;exitX=0.387;exitY=0.000;exitDx=0;exitDy=0;entryX=0.500;entryY=1.000;entryDx=0;entryDy=0;" edge="1" parent="1" source="n0j5kEs9DRSpcFmQZBuR-13" target="n0j5kEs9DRSpcFmQZBuR-6">
          <mxGeometry width="50" height="50" relative="1" as="geometry">
            <Array as="points" />
          </mxGeometry>
        </mxCell>
        <mxCell id="n0j5kEs9DRSpcFmQZBuR-47" value="«create»" style="edgeLabel;resizable=0;html=1;align=left;verticalAlign=top;strokeColor=default;" vertex="1" connectable="0" parent="n0j5kEs9DRSpcFmQZBuR-46">
          <mxGeometry x="3709" y="-1411" as="geometry" />
        </mxCell>
        <mxCell id="n0j5kEs9DRSpcFmQZBuR-48" value="" style="html=1;rounded=1;edgeStyle=orthogonalEdgeStyle;dashed=0;startArrow=diamondThinstartSize=12;endArrow=openThin;endSize=12;strokeColor=#595959;exitX=0.358;exitY=0.000;exitDx=0;exitDy=0;entryX=0.449;entryY=1.000;entryDx=0;entryDy=0;" edge="1" parent="1" source="n0j5kEs9DRSpcFmQZBuR-13" target="n0j5kEs9DRSpcFmQZBuR-6">
          <mxGeometry width="50" height="50" relative="1" as="geometry">
            <Array as="points" />
          </mxGeometry>
        </mxCell>
        <mxCell id="n0j5kEs9DRSpcFmQZBuR-49" value="1" style="edgeLabel;resizable=0;html=1;align=left;verticalAlign=top;strokeColor=default;" vertex="1" connectable="0" parent="n0j5kEs9DRSpcFmQZBuR-48">
          <mxGeometry x="3734" y="-1351" as="geometry" />
        </mxCell>
        <mxCell id="n0j5kEs9DRSpcFmQZBuR-50" value="1" style="edgeLabel;resizable=0;html=1;align=left;verticalAlign=top;strokeColor=default;" vertex="1" connectable="0" parent="n0j5kEs9DRSpcFmQZBuR-48">
          <mxGeometry x="3734" y="-1505" as="geometry" />
        </mxCell>
        <mxCell id="n0j5kEs9DRSpcFmQZBuR-51" value="loyaltyAccount" style="edgeLabel;resizable=0;html=1;align=left;verticalAlign=top;strokeColor=default;" vertex="1" connectable="0" parent="n0j5kEs9DRSpcFmQZBuR-48">
          <mxGeometry x="3745" y="-1505" as="geometry" />
        </mxCell>
        <mxCell id="n0j5kEs9DRSpcFmQZBuR-52" value="" style="html=1;rounded=1;edgeStyle=orthogonalEdgeStyle;dashed=0;startArrow=diamondThinstartSize=12;endArrow=openThin;endSize=12;strokeColor=#595959;exitX=0.500;exitY=0.000;exitDx=0;exitDy=0;entryX=0.500;entryY=1.000;entryDx=0;entryDy=0;" edge="1" parent="1" source="n0j5kEs9DRSpcFmQZBuR-14" target="n0j5kEs9DRSpcFmQZBuR-2">
          <mxGeometry width="50" height="50" relative="1" as="geometry">
            <Array as="points">
              <mxPoint x="4304" y="-1469" />
              <mxPoint x="4059" y="-1469" />
            </Array>
          </mxGeometry>
        </mxCell>
        <mxCell id="n0j5kEs9DRSpcFmQZBuR-53" value="1" style="edgeLabel;resizable=0;html=1;align=left;verticalAlign=top;strokeColor=default;" vertex="1" connectable="0" parent="n0j5kEs9DRSpcFmQZBuR-52">
          <mxGeometry x="4135" y="-1489" as="geometry" />
        </mxCell>
        <mxCell id="n0j5kEs9DRSpcFmQZBuR-54" value="1" style="edgeLabel;resizable=0;html=1;align=left;verticalAlign=top;strokeColor=default;" vertex="1" connectable="0" parent="n0j5kEs9DRSpcFmQZBuR-52">
          <mxGeometry x="4048" y="-1573" as="geometry" />
        </mxCell>
        <mxCell id="n0j5kEs9DRSpcFmQZBuR-55" value="customer" style="edgeLabel;resizable=0;html=1;align=left;verticalAlign=top;strokeColor=default;" vertex="1" connectable="0" parent="n0j5kEs9DRSpcFmQZBuR-52">
          <mxGeometry x="4059" y="-1533" as="geometry" />
        </mxCell>
        <mxCell id="n0j5kEs9DRSpcFmQZBuR-56" value="" style="html=1;rounded=1;edgeStyle=orthogonalEdgeStyle;dashed=0;startArrow=diamondThinstartSize=12;endArrow=openThin;endSize=12;strokeColor=#595959;exitX=0.655;exitY=0.000;exitDx=0;exitDy=0;entryX=0.500;entryY=1.000;entryDx=0;entryDy=0;" edge="1" parent="1" source="n0j5kEs9DRSpcFmQZBuR-14" target="n0j5kEs9DRSpcFmQZBuR-9">
          <mxGeometry width="50" height="50" relative="1" as="geometry">
            <Array as="points" />
          </mxGeometry>
        </mxCell>
        <mxCell id="n0j5kEs9DRSpcFmQZBuR-57" value="1" style="edgeLabel;resizable=0;html=1;align=left;verticalAlign=top;strokeColor=default;" vertex="1" connectable="0" parent="n0j5kEs9DRSpcFmQZBuR-56">
          <mxGeometry x="4352" y="-1494" as="geometry" />
        </mxCell>
        <mxCell id="n0j5kEs9DRSpcFmQZBuR-58" value="1" style="edgeLabel;resizable=0;html=1;align=left;verticalAlign=top;strokeColor=default;" vertex="1" connectable="0" parent="n0j5kEs9DRSpcFmQZBuR-56">
          <mxGeometry x="4346" y="-1501" as="geometry" />
        </mxCell>
        <mxCell id="n0j5kEs9DRSpcFmQZBuR-59" value="product" style="edgeLabel;resizable=0;html=1;align=left;verticalAlign=top;strokeColor=default;" vertex="1" connectable="0" parent="n0j5kEs9DRSpcFmQZBuR-56">
          <mxGeometry x="4357" y="-1501" as="geometry" />
        </mxCell>
      </root>
    </mxGraphModel>
  </diagram>
</mxfile>
